<?xml version="1.0" encoding="UTF-8"?>
<svg xmlns="http://www.w3.org/2000/svg" xmlns:xlink="http://www.w3.org/1999/xlink" viewBox="0 0 48 48" version="1.1" width="50px" height="50px">
<g id="surface1">
<path style=" fill:#FFA726;" d="M 16 24 C 16 26.199219 14.199219 28 12 28 C 9.800781 28 8 26.199219 8 24 C 8 21.800781 9.800781 20 12 20 C 14.199219 20 16 21.800781 16 24 M 40 24 C 40 21.800781 38.199219 20 36 20 C 33.800781 20 32 21.800781 32 24 C 32 26.199219 33.800781 28 36 28 C 38.199219 28 40 26.199219 40 24 "/>
<path style=" fill:#FFB74D;" d="M 11 16 L 37 16 L 37 32 C 37 35 31.199219 44 24 44 C 16.800781 44 11 35.300781 11 32 Z "/>
<path style=" fill:#37474F;" d="M 45.300781 15 L 37 15 L 36.199219 4.199219 C 36.101563 3.5 35.800781 3 35 3 C 32.898438 3 28.300781 3 24 3 C 19.699219 3 15.699219 3 13 3 C 12.199219 3 11.898438 3.5 11.800781 4.199219 L 11 15 L 2.699219 15 C 2 15 1.800781 15.800781 2.300781 16.199219 C 4.898438 17.601563 12.699219 20 24 20 C 35.300781 20 43.101563 17.601563 45.699219 16.199219 C 46.300781 15.800781 46 15 45.300781 15 Z "/>
<path style=" fill:#4E342E;" d="M 27 31 L 21 31 C 18.800781 31 17 32.800781 17 35 L 17 39.398438 C 17 42.5 19.5 45 22.601563 45 L 25.398438 45 C 28.5 45 31 42.5 31 39.398438 L 31 35 C 31 32.800781 29.199219 31 27 31 Z M 29 38 L 26 41 L 26 39 C 26 37.898438 25.101563 37 24 37 C 22.898438 37 22 37.898438 22 39 L 22 41 L 19 38 L 19 37 C 19 35.898438 19.898438 35 21 35 L 27 35 C 28.101563 35 29 35.898438 29 37 Z "/>
<path style=" fill:#263238;" d="M 11 21 L 12.5 26.300781 C 12.800781 27.300781 13.699219 28 14.800781 28 L 19.300781 28 C 20.300781 28 21.300781 27.398438 21.699219 26.5 C 21.699219 26.5 22.699219 24.601563 23.398438 23.300781 C 23.699219 22.699219 24.5 22.800781 24.800781 23.300781 L 26.398438 26.5 C 26.898438 27.398438 27.800781 28 28.800781 28 L 33.300781 28 C 34.398438 28 35.300781 27.300781 35.601563 26.300781 L 37 21 Z "/>
<path style=" fill:#4CAF50;" d="M 11.300781 11 L 11 15 L 37 15 L 36.699219 11 Z "/>
</g>
</svg>
