<?xml version="1.0" encoding="UTF-8"?>
<svg width="44px" height="42px" viewBox="0 0 44 42" version="1.1" xmlns="http://www.w3.org/2000/svg" xmlns:xlink="http://www.w3.org/1999/xlink">
    <g id="Page-1" stroke="none" stroke-width="1" fill="none" fill-rule="evenodd">
        <g id="walter-white" fill-rule="nonzero">
            <path d="M14,21 C14,23.199219 12.199219,25 10,25 C7.800781,25 6,23.199219 6,21 C6,18.800781 7.800781,17 10,17 C12.199219,17 14,18.800781 14,21 M38,21 C38,18.800781 36.199219,17 34,17 C31.800781,17 30,18.800781 30,21 C30,23.199219 31.800781,25 34,25 C36.199219,25 38,23.199219 38,21" id="Shape" fill="#FFA726"></path>
            <path d="M9,13 L35,13 L35,29 C35,32 29.199219,41 22,41 C14.800781,41 9,32.300781 9,29 L9,13 Z" id="Shape" fill="#FFB74D"></path>
            <path d="M43.300781,12 L35,12 L34.199219,1.199219 C34.101563,0.5 33.800781,0 33,0 C30.898438,0 26.300781,0 22,0 C17.699219,0 13.699219,0 11,0 C10.199219,0 9.898438,0.5 9.800781,1.199219 L9,12 L0.699219,12 C-1.88737914e-15,12 -0.199219,12.800781 0.300781,13.199219 C2.898438,14.601563 10.699219,17 22,17 C33.300781,17 41.101563,14.601563 43.699219,13.199219 C44.300781,12.800781 44,12 43.300781,12 Z" id="Shape" fill="#37474F"></path>
            <path d="M25,28 L19,28 C16.800781,28 15,29.800781 15,32 L15,36.398438 C15,39.5 17.5,42 20.601563,42 L23.398438,42 C26.5,42 29,39.5 29,36.398438 L29,32 C29,29.800781 27.199219,28 25,28 Z M27,35 L24,38 L24,36 C24,34.898438 23.101563,34 22,34 C20.898438,34 20,34.898438 20,36 L20,38 L17,35 L17,34 C17,32.898438 17.898438,32 19,32 L25,32 C26.101563,32 27,32.898438 27,34 L27,35 Z" id="Shape" fill="#4E342E"></path>
            <path d="M9,18 L10.5,23.300781 C10.800781,24.300781 11.699219,25 12.800781,25 L17.300781,25 C18.300781,25 19.300781,24.398438 19.699219,23.5 C19.699219,23.5 20.699219,21.601563 21.398438,20.300781 C21.699219,19.699219 22.5,19.800781 22.800781,20.300781 L24.398438,23.5 C24.898438,24.398438 25.800781,25 26.800781,25 L31.300781,25 C32.398438,25 33.300781,24.300781 33.601563,23.300781 L35,18 L9,18 Z" id="Shape" fill="#263238"></path>
            <polygon id="Shape" fill="#4CAF50" points="9.300781 8 9 12 35 12 34.699219 8"></polygon>
        </g>
    </g>
</svg>